<svg width="23" height="49" viewBox="0 0 23 49" fill="none" xmlns="http://www.w3.org/2000/svg">
<path d="M15.7785 5.46138C13.7112 3.02139 11.931 0.543281 11.5673 0.0285937C11.529 -0.00953125 11.4715 -0.00953125 11.4333 0.0285937C11.0696 0.543281 9.28934 3.02139 7.22197 5.46138C-10.5229 27.974 10.0168 43.167 10.0168 43.167L10.189 43.2813C10.3422 45.6258 10.725 49 10.725 49H11.4907H12.2564C12.2564 49 12.6392 45.645 12.7924 43.2813L12.9647 43.1478C12.9838 43.167 33.5234 27.974 15.7785 5.46138ZM11.4907 42.8428C11.4907 42.8428 10.5719 42.0613 10.323 41.6609V41.6229L11.4333 17.1085C11.4333 17.0322 11.5481 17.0322 11.5481 17.1085L12.6584 41.6229V41.6609C12.4095 42.0613 11.4907 42.8428 11.4907 42.8428Z" fill="#00684A"/>
</svg>
