<svg width="50" height="54" viewBox="0 0 50 54" fill="none" xmlns="http://www.w3.org/2000/svg">
<g clip-path="url(#clip0_10_160)">
<path d="M25.0004 54C24.224 54 23.4991 53.8015 22.8264 53.4542L15.9422 49.535C14.9071 48.9893 15.4246 48.7911 15.7352 48.6918C17.1328 48.2452 17.3914 48.146 18.8408 47.3523C18.996 47.2531 19.2032 47.3026 19.3585 47.4017L24.6381 50.4281C24.8451 50.5273 25.1038 50.5273 25.259 50.4281L45.9121 38.9682C46.1177 38.869 46.2233 38.6705 46.2233 38.4227V15.5526C46.2233 15.3044 46.1177 15.106 45.9121 15.0068L25.259 3.59664C25.0522 3.49743 24.7931 3.49743 24.6381 3.59664L3.9856 15.0068C3.77838 15.106 3.67502 15.3542 3.67502 15.5526V38.4227C3.67502 38.621 3.77838 38.869 3.9856 38.9682L9.62747 42.0935C12.6813 43.582 14.5965 41.8457 14.5965 40.1093V17.5368C14.5965 17.2392 14.8551 16.9416 15.2177 16.9416H17.8573C18.1679 16.9416 18.4785 17.1897 18.4785 17.5368V40.1093C18.4785 44.0282 16.2527 46.3103 12.3708 46.3103C11.1804 46.3103 10.2486 46.3103 7.6087 45.0701L2.17379 42.0935C0.828119 41.3496 0 39.9603 0 38.4721V15.6021C0 14.1139 0.828119 12.7249 2.17379 11.9807L22.8264 0.521057C24.1204 -0.173686 25.8801 -0.173686 27.1742 0.521057L47.8276 11.9807C49.1722 12.7249 50 14.1139 50 15.6021V38.4721C50 39.9603 49.1722 41.3496 47.8276 42.0935L27.1742 53.5534C26.5531 53.8015 25.7769 54 25.0004 54Z" fill="#5FA04E"/>
<path d="M31.4471 38.3503C22.4318 38.3503 20.5776 34.3531 20.5776 30.9554C20.5776 30.6557 20.835 30.3559 21.1955 30.3559H23.874C24.1832 30.3559 24.4408 30.5557 24.4408 30.8555C24.8527 33.5036 26.0376 34.8027 31.4984 34.8027C35.8249 34.8027 37.6798 33.8535 37.6798 31.6051C37.6798 30.3057 37.163 29.3564 30.4157 28.707C24.8013 28.1572 21.2986 26.9582 21.2986 22.611C21.2986 18.564 24.8013 16.1656 30.6735 16.1656C37.2679 16.1656 40.5121 18.3641 40.924 23.1608C40.924 23.3106 40.8729 23.4606 40.7706 23.6104C40.6655 23.7103 40.5121 23.8104 40.356 23.8104H37.626C37.3702 23.8104 37.1118 23.6104 37.0607 23.3607C36.4414 20.6127 34.845 19.7131 30.622 19.7131C25.8831 19.7131 25.3163 21.3121 25.3163 22.5111C25.3163 23.9602 25.9859 24.4101 32.3733 25.2094C38.7083 26.0087 41.6968 27.158 41.6968 31.455C41.6968 35.8519 37.9356 38.3503 31.4471 38.3503Z" fill="#5FA04E"/>
</g>
<defs>
<clipPath id="clip0_10_160">
<rect width="50" height="54" fill="white"/>
</clipPath>
</defs>
</svg>
