<svg width="42" height="42" viewBox="0 0 42 42" fill="none" xmlns="http://www.w3.org/2000/svg">
<g clip-path="url(#clip0_10_79)">
<path d="M37.8984 0H4.10157C1.83634 0 0 1.83634 0 4.10157V37.8984C0 40.1636 1.83634 42 4.10157 42H37.8984C40.1636 42 42 40.1636 42 37.8984V4.10157C42 1.83634 40.1636 0 37.8984 0Z" fill="#3178C6"/>
<path fill-rule="evenodd" clip-rule="evenodd" d="M25.9989 33.4216V37.5281C26.6665 37.8703 27.456 38.1269 28.3675 38.298C29.2791 38.4692 30.2397 38.5547 31.2497 38.5547C32.2341 38.5547 33.169 38.4606 34.0549 38.2723C34.9407 38.0841 35.7175 37.774 36.3851 37.3419C37.0526 36.91 37.5812 36.3452 37.9705 35.648C38.3599 34.9507 38.5547 34.0889 38.5547 33.0622C38.5547 32.3178 38.4435 31.6656 38.2209 31.1051C37.9984 30.5448 37.6775 30.0464 37.258 29.6101C36.8387 29.1738 36.3359 28.7824 35.7495 28.4359C35.1632 28.0894 34.5021 27.7621 33.766 27.4542C33.2268 27.2318 32.7433 27.0158 32.3153 26.8062C31.8874 26.5964 31.5237 26.3827 31.2241 26.1645C30.9244 25.9464 30.6934 25.7154 30.5308 25.4715C30.3683 25.2277 30.2868 24.9517 30.2868 24.6437C30.2868 24.3615 30.3596 24.1069 30.5051 23.8802C30.6506 23.6535 30.8561 23.4589 31.1213 23.2963C31.3867 23.1338 31.7119 23.0076 32.097 22.9177C32.4822 22.8279 32.9101 22.783 33.3809 22.783C33.7232 22.783 34.0849 22.8087 34.4657 22.86C34.8465 22.9113 35.2296 22.9904 35.6148 23.0973C35.9999 23.2043 36.3743 23.3392 36.7381 23.5017C37.1018 23.6642 37.4378 23.8524 37.7458 24.0663V20.2293C37.121 19.9897 36.4385 19.8122 35.6983 19.6967C34.9579 19.5812 34.1084 19.5234 33.1498 19.5234C32.174 19.5234 31.2497 19.6283 30.3767 19.8379C29.5038 20.0475 28.7356 20.3747 28.0722 20.8196C27.4089 21.2644 26.8848 21.8312 26.4996 22.5199C26.1145 23.2086 25.9219 24.032 25.9219 24.9903C25.9219 26.2136 26.2749 27.2575 26.9811 28.1215C27.6871 28.9856 28.759 29.717 30.1971 30.316C30.7619 30.547 31.2883 30.7736 31.7761 30.9961C32.2639 31.2186 32.6855 31.4496 33.0406 31.6891C33.3959 31.9286 33.6761 32.1895 33.8816 32.4719C34.087 32.7541 34.1897 33.075 34.1897 33.4344C34.1897 33.6996 34.1255 33.9455 33.9971 34.1722C33.8687 34.3989 33.674 34.5957 33.413 34.7625C33.1519 34.9294 32.8267 35.0598 32.4372 35.1539C32.0477 35.248 31.5922 35.2951 31.07 35.2951C30.1798 35.2951 29.2983 35.139 28.4253 34.8267C27.5523 34.5145 26.7434 34.0461 25.9989 33.4216ZM19.0953 23.3036H24.3633V19.9335H9.67969V23.3036H14.922V38.3085H19.0953V23.3036Z" fill="white"/>
</g>
<defs>
<clipPath id="clip0_10_79">
<rect width="42" height="42" fill="white"/>
</clipPath>
</defs>
</svg>
