<svg width="42" height="47" viewBox="0 0 42 47" fill="none" xmlns="http://www.w3.org/2000/svg">
<path d="M42 0L38.062 42.4302L20.9998 47L3.93729 42.4302L0 0H42ZM34.0646 8.62752H20.9844H7.67253L8.30917 13.7514H20.9844H21.6964L20.9844 14.0462L8.77243 19.1054L9.17742 24.1139L20.9844 24.152L27.3125 24.172L26.9075 30.85L20.9842 32.5088V32.5036L20.9358 32.5169L15.2155 31.0805L14.8683 26.9352H14.8494H9.54349H9.52482L10.2193 34.9378L20.9845 38.1044V38.0987L21.0038 38.1044L31.7113 34.9955L33.1003 19.1054H20.9845H20.9546L20.9845 19.0925L33.5441 13.7514L34.0646 8.62752Z" fill="#33AADD"/>
</svg>
