<svg width="51" height="44" viewBox="0 0 51 44" fill="none" xmlns="http://www.w3.org/2000/svg">
<path fill-rule="evenodd" clip-rule="evenodd" d="M40.2906 13.7986C41.2523 10.0266 42.4612 3.03173 38.1997 0.660271C33.958 -1.70086 28.4382 2.8235 25.5236 5.53922C22.6175 2.85056 16.9427 -1.65445 12.6848 0.724544C8.44477 3.0936 9.75228 9.97243 10.7353 13.7681C6.78012 14.8523 0 17.1877 0 21.9592C0 26.7171 6.77308 29.258 10.7049 30.3412C9.71818 34.1579 8.47613 40.9384 12.7216 43.3023C16.9954 45.6809 22.6526 41.283 25.5942 38.5375C28.5275 41.2693 33.9942 45.6959 38.2367 43.3254C42.4926 40.9476 41.3842 34.0466 40.401 30.2289C44.2124 29.1432 51 26.6577 51 21.9592C51 17.2337 44.1835 14.8793 40.2906 13.7986ZM39.8075 28.2057C39.162 26.2334 38.2907 24.1362 37.225 21.9698C38.2423 19.8543 39.0797 17.7842 39.7073 15.8245C42.5611 16.6232 48.8215 18.4484 48.8215 21.9592C48.8215 25.5031 42.8138 27.3455 39.8075 28.2057ZM37.1449 41.5055C33.9796 43.2739 29.2776 39.0408 27.1113 37.0292C28.5484 35.5121 29.9845 33.7483 31.3862 31.7898C33.852 31.5788 36.1811 31.2335 38.2936 30.7623C38.9854 33.4626 40.3244 39.7291 37.1449 41.5055ZM13.8102 41.4803C10.6444 39.7185 12.0914 33.6677 12.8173 30.8564C14.9061 31.3024 17.2186 31.6234 19.69 31.8168C21.1009 33.7331 22.5787 35.4947 24.0679 37.0373C22.2281 38.7552 16.9906 43.2503 13.8102 41.4803ZM2.17854 21.9592C2.17854 18.4021 8.40151 16.5903 11.3204 15.7936C11.9587 17.7971 12.7958 19.8921 13.8061 22.0106C12.7827 24.1604 11.9336 26.2885 11.2894 28.3158C8.50627 27.5467 2.17854 25.5185 2.17854 21.9592ZM13.7763 2.54445C16.955 0.768578 21.887 5.09356 23.9971 7.04022C22.5154 8.57584 21.0512 10.3241 19.6525 12.2295C17.254 12.444 14.9578 12.7886 12.847 13.2503C12.0551 10.1889 10.6011 4.31841 13.7763 2.54445ZM32.9448 14.5151C34.572 14.7133 36.1312 14.9769 37.595 15.2995C37.1555 16.6591 36.6078 18.0808 35.9627 19.5383C35.0274 17.8256 34.0237 16.1473 32.9448 14.5151ZM25.5243 8.54294C26.5292 9.59365 27.5356 10.767 28.5257 12.0399C26.5174 11.9482 24.506 11.9479 22.4978 12.0386C23.4887 10.7774 24.5037 9.60585 25.5243 8.54294ZM15.0561 19.5367C14.4216 18.0843 13.8788 16.6563 13.4355 15.2773C14.8906 14.9631 16.4424 14.7061 18.0592 14.5112C16.9772 16.1399 15.9751 17.8175 15.0561 19.5367ZM18.1055 29.5573C16.4355 29.3774 14.8601 29.1336 13.4054 28.828C13.8557 27.4247 14.4105 25.9659 15.0585 24.4823C15.9902 26.2194 17.0077 27.9133 18.1055 29.5573ZM25.5846 35.524C24.552 34.4486 23.522 33.2591 22.5161 31.9797C24.5358 32.0562 26.5592 32.0563 28.5787 31.9695C27.5856 33.2722 26.5827 34.4634 25.5846 35.524ZM35.9834 24.4068C36.6651 25.9066 37.2397 27.3573 37.6961 28.7369C36.2173 29.0626 34.6209 29.325 32.9387 29.5198C34.0255 27.8565 35.0454 26.1523 35.9834 24.4068ZM30.1704 29.7747C27.0812 29.9878 23.9728 29.9854 20.8824 29.7921C19.1266 27.3164 17.5634 24.7128 16.2141 22.0099C17.5569 19.3125 19.1087 16.714 20.8563 14.2421C23.9488 14.0165 27.0603 14.0159 30.1527 14.2435C31.8854 16.7151 33.4347 19.3069 34.8087 21.9799C33.4511 24.6759 31.8912 27.2797 30.1704 29.7747ZM37.1115 2.48194C40.291 4.25199 38.8758 10.5384 38.1812 13.2721C36.0653 12.8008 33.7677 12.4501 31.3621 12.2322C29.9607 10.3062 28.5087 8.55493 27.0511 7.03913C29.1881 5.05054 33.9628 0.729199 37.1115 2.48194Z" fill="#53C1DE"/>
</svg>
