<svg width="61" height="36" viewBox="0 0 61 36" fill="none" xmlns="http://www.w3.org/2000/svg">
<g clip-path="url(#clip0_10_172)">
<path d="M15.25 24C17.2833 32 22.3667 36 30.5 36C42.7 36 44.225 27 50.325 25.5C54.3917 24.5 57.95 26 61 30C58.9667 22 53.8833 18 45.75 18C33.55 18 32.025 27 25.925 28.5C21.8583 29.5 18.3 28 15.25 24ZM0 6C2.03333 14 7.11667 18 15.25 18C27.45 18 28.975 9 35.075 7.5C39.1417 6.5 42.7 8 45.75 12C43.7167 4 38.6333 0 30.5 0C18.3 0 16.775 9 10.675 10.5C6.60833 11.5 3.05 10 0 6Z" fill="#44A8B3"/>
</g>
<defs>
<clipPath id="clip0_10_172">
<rect width="61" height="36" fill="white" transform="matrix(1 0 0 -1 0 36)"/>
</clipPath>
</defs>
</svg>
